<?xml version="1.0" encoding="utf-8"?>
<!-- Generator: Adobe Illustrator 16.0.0, SVG Export Plug-In . SVG Version: 6.00 Build 0)  -->
<!DOCTYPE svg PUBLIC "-//W3C//DTD SVG 1.1//EN" "http://www.w3.org/Graphics/SVG/1.1/DTD/svg11.dtd">
<svg version="1.1" id="Layer_1" xmlns="http://www.w3.org/2000/svg" xmlns:xlink="http://www.w3.org/1999/xlink" x="0px" y="0px"
	 width="24px" height="24px" viewBox="0 0 24 24" enable-background="new 0 0 24 24" xml:space="preserve">
<path fill="#142C8E" d="M22.29,20.876l-5.396-5.396c1.055-1.354,1.689-3.05,1.689-4.896c0-4.411-3.589-8-8-8s-8,3.589-8,8
	s3.589,8,8,8c1.846,0,3.543-0.635,4.896-1.688l5.396,5.396c0.195,0.194,0.451,0.292,0.707,0.292s0.512-0.098,0.707-0.293
	C22.681,21.899,22.681,21.267,22.29,20.876z M4.583,10.583c0-3.309,2.691-6,6-6c3.309,0,6,2.691,6,6c0,3.309-2.691,6-6,6
	C7.274,16.583,4.583,13.892,4.583,10.583z"/>
</svg>
